<svg width="30" height="30" viewBox="0 0 30 30" fill="none" xmlns="http://www.w3.org/2000/svg">
<path d="M30 5.66973C28.8968 6.15858 27.7116 6.48889 26.4657 6.63819C27.7513 5.86896 28.713 4.65828 29.1716 3.23205C27.9638 3.94946 26.6419 4.45445 25.2634 4.72504C24.3364 3.73526 23.1085 3.07921 21.7704 2.85876C20.4324 2.63831 19.059 2.86579 17.8634 3.50588C16.6679 4.14596 15.7171 5.16285 15.1588 6.39866C14.6004 7.63447 14.4656 9.02005 14.7754 10.3403C12.328 10.2174 9.93389 9.58131 7.74829 8.47327C5.5627 7.36522 3.63451 5.80999 2.08888 3.90852C1.56038 4.82017 1.2565 5.87716 1.2565 7.00286C1.25591 8.01624 1.50546 9.0141 1.98302 9.9079C2.46057 10.8017 3.15136 11.5638 3.9941 12.1266C3.01675 12.0955 2.06096 11.8314 1.20629 11.3563V11.4356C1.20619 12.8569 1.69783 14.2345 2.59779 15.3346C3.49775 16.4347 4.7506 17.1895 6.14375 17.471C5.2371 17.7164 4.28654 17.7525 3.36387 17.5767C3.75693 18.7997 4.52259 19.8691 5.55364 20.6353C6.5847 21.4015 7.82954 21.826 9.11389 21.8496C6.93363 23.5611 4.24102 24.4895 1.46922 24.4855C0.978219 24.4856 0.487637 24.4569 0 24.3996C2.81354 26.2086 6.08871 27.1687 9.43363 27.1649C20.7566 27.1649 26.9466 17.7868 26.9466 9.65326C26.9466 9.38901 26.94 9.12212 26.9281 8.85787C28.1322 7.98714 29.1715 6.90891 29.9974 5.67369L30 5.66973Z" fill="#2C363F"/>
</svg>
